<svg xmlns="http://www.w3.org/2000/svg" viewBox="0 0 340 100" fill="none">
  <defs>
    <linearGradient id="txt" x1="0%" y1="0%" x2="100%" y2="100%">
      <stop offset="0%" stop-color="#fefae0"/>
      <stop offset="50%" stop-color="#f4e8c1"/>
      <stop offset="100%" stop-color="#dda15e"/>
    </linearGradient>
    <linearGradient id="accent" x1="0%" y1="0%" x2="100%" y2="0%">
      <stop offset="0%" stop-color="#f4a261"/>
      <stop offset="100%" stop-color="#e76f51"/>
    </linearGradient>
    <linearGradient id="drop" x1="0%" y1="0%" x2="0%" y2="100%">
      <stop offset="0%" stop-color="#f4a261"/>
      <stop offset="100%" stop-color="#e76f51"/>
    </linearGradient>
    <filter id="glow">
      <feGaussianBlur stdDeviation="3" result="blur"/>
      <feMerge><feMergeNode in="blur"/><feMergeNode in="SourceGraphic"/></feMerge>
    </filter>
    <filter id="textGlow">
      <feGaussianBlur in="SourceGraphic" stdDeviation="1.5" result="blur"/>
      <feColorMatrix in="blur" type="matrix" values="1 0.8 0.4 0 0  0.8 0.6 0.2 0 0  0.4 0.2 0 0 0  0 0 0 0.2 0" result="warmBlur"/>
      <feMerge><feMergeNode in="warmBlur"/><feMergeNode in="SourceGraphic"/></feMerge>
    </filter>
  </defs>

  <!-- Wordmark with warm glow -->
  <text x="170" y="62" text-anchor="middle"
        font-family="Georgia, 'Noto Serif', 'Times New Roman', serif"
        font-size="64" font-weight="bold" letter-spacing="6"
        fill="url(#txt)" filter="url(#textGlow)">InkOS</text>

  <!-- Ink drop on the "I" -->
  <path d="M51.5 6 C51.5 6, 58 16, 58 20.5 C58 24, 55.5 27, 51.5 27 C47.5 27, 45 24, 45 20.5 C45 16, 51.5 6, 51.5 6Z"
        fill="url(#drop)" filter="url(#glow)"/>

  <!-- Swoosh underline -->
  <path d="M30 76 C85 86, 150 70, 210 78 C250 82, 285 73, 318 80"
        stroke="url(#accent)" stroke-width="2.8" fill="none" stroke-linecap="round" opacity="0.7"/>

  <!-- Ink splatter -->
  <circle cx="323" cy="78" r="2.8" fill="#e76f51" opacity="0.5"/>
  <circle cx="329" cy="82" r="1.3" fill="#e76f51" opacity="0.3"/>
  <circle cx="24" cy="78" r="1.8" fill="#f4a261" opacity="0.4"/>
</svg>
